<?xml version="1.0" standalone="no"?>
<!DOCTYPE svg PUBLIC "-//W3C//DTD SVG 20010904//EN"
 "http://www.w3.org/TR/2001/REC-SVG-20010904/DTD/svg10.dtd">
<svg version="1.0" xmlns="http://www.w3.org/2000/svg"
 width="1280.000000pt" height="1280.000000pt" viewBox="0 0 1280.000000 1280.000000"
 preserveAspectRatio="xMidYMid meet">
<metadata>
Created by potrace 1.15, written by Peter Selinger 2001-2017
</metadata>
<g transform="translate(0.000000,1280.000000) scale(0.100000,-0.100000)"
fill="#000000" stroke="none">
<path d="M3710 11133 c-829 -31 -1623 -401 -2130 -991 -411 -478 -625 -1051
-647 -1727 -29 -911 331 -1815 1062 -2670 495 -578 1022 -1049 2205 -1970 190
-148 422 -330 515 -404 884 -701 1335 -1164 1569 -1611 l53 -102 47 88 c115
216 287 435 541 690 348 349 590 547 1538 1262 1161 874 1534 1185 2032 1693
878 895 1315 1768 1364 2720 33 640 -114 1219 -433 1704 -99 151 -196 269
-334 408 -744 752 -1913 1050 -2945 751 -619 -180 -1133 -576 -1457 -1123
-105 -178 -204 -402 -260 -590 l-22 -74 -59 177 c-201 610 -578 1087 -1103
1399 -286 169 -631 289 -986 342 -93 14 -422 37 -460 33 -8 -1 -49 -3 -90 -5z"/>
</g>
</svg>
